<svg width="300" height="200" xmlns="http://www.w3.org/2000/svg">
  <defs>
    <linearGradient id="locationGradient" x1="0%" y1="0%" x2="100%" y2="100%">
      <stop offset="0%" style="stop-color:#2196F3;stop-opacity:1" />
      <stop offset="100%" style="stop-color:#1565C0;stop-opacity:1" />
    </linearGradient>
  </defs>
  
  <!-- 背景 -->
  <rect width="300" height="200" fill="#E3F2FD"/>
  
  <!-- 地标图标 -->
  <path d="M150 50 C130 50 115 65 115 85 C115 110 150 150 150 150 S185 110 185 85 C185 65 170 50 150 50 Z" fill="url(#locationGradient)"/>
  
  <!-- 地标内圆 -->
  <circle cx="150" cy="85" r="15" fill="white"/>
  <circle cx="150" cy="85" r="8" fill="#1565C0"/>
  
  <!-- 山峰背景 -->
  <polygon points="50,160 100,120 150,140 200,110 250,130 300,160 300,200 50,200" fill="#81C784"/>
  <polygon points="50,170 80,150 120,160 160,140 200,150 250,140 300,170 300,200 50,200" fill="#66BB6A"/>
  
  <!-- 文字 -->
  <text x="150" y="185" text-anchor="middle" font-family="Arial, sans-serif" font-size="14" fill="#666">
    动物地点
  </text>
</svg>